<?xml version="1.0" encoding="iso-8859-1"?>
<!-- Generator: Adobe Illustrator 18.0.0, SVG Export Plug-In . SVG Version: 6.00 Build 0)  -->
<!DOCTYPE svg PUBLIC "-//W3C//DTD SVG 1.1//EN" "http://www.w3.org/Graphics/SVG/1.1/DTD/svg11.dtd">
<svg version="1.1" id="Capa_1" xmlns="http://www.w3.org/2000/svg" xmlns:xlink="http://www.w3.org/1999/xlink" x="0px" y="0px"
	 viewBox="0 0 492.276 492.276" style="enable-background:new 0 0 492.276 492.276;" xml:space="preserve">
<path id="cleaver-knife" style="fill:#000100;" d="M442.901,438.823L328.582,265.227c6.934-4.582,9.568-13.576,5.609-21.067
	c-3.994-7.523-12.957-10.431-20.637-7.267l-38.226-92.596c-15.731-38.141-27.073-77.93-33.814-118.628l-0.014-0.099
	c-1.679-10.076-8.276-18.653-17.589-22.854c-9.313-4.219-20.107-3.483-28.783,1.93l-30.637,19.151
	c-9.021,5.642-18.433,10.655-28.141,15.018c0,0-90.631,40.744-90.936,40.906c-8.29,4.362,14.25,63.346,50.299,131.791
	c36.05,68.414,71.96,120.356,80.214,116.012c0.323-0.162,107.165-56.479,107.165-56.479c0,0.013,0,0.013,0,0.031
	c2.939,5.556,8.608,8.738,14.488,8.738c2.06,0,4.119-0.512,6.117-1.328l78.472,192.347c3.658,9.008,10.974,16.036,20.111,19.358
	c9.151,3.34,19.264,2.639,27.89-1.885c8.608-4.533,14.901-12.491,17.311-21.93C449.912,456.982,448.251,446.968,442.901,438.823z
	 M203.388,84.658c-11.261,5.942-25.237,1.598-31.18-9.649c-5.925-11.293-1.611-25.237,9.663-31.18
	c11.292-5.942,25.237-1.598,31.18,9.649C218.994,64.752,214.666,78.715,203.388,84.658z"/>
<g>
</g>
<g>
</g>
<g>
</g>
<g>
</g>
<g>
</g>
<g>
</g>
<g>
</g>
<g>
</g>
<g>
</g>
<g>
</g>
<g>
</g>
<g>
</g>
<g>
</g>
<g>
</g>
<g>
</g>
</svg>
